<svg width="144" height="54" viewBox="0 0 144 54" fill="none" xmlns="http://www.w3.org/2000/svg">
<path fill-rule="evenodd" clip-rule="evenodd" d="M134.946 22.843H138.515C139.041 22.843 139.415 22.8273 139.632 22.7954C139.848 22.7663 140.05 22.7001 140.229 22.6024C140.624 22.3907 140.819 22.0071 140.819 21.4545C140.819 20.9016 140.624 20.5178 140.229 20.3063C140.044 20.2031 139.845 20.1368 139.636 20.1079C139.427 20.0786 139.052 20.0654 138.515 20.0654H134.946V22.8433V22.843ZM134.946 24.5892V28.0944C134.946 28.2505 134.983 28.3695 135.057 28.4542C135.131 28.5414 135.258 28.6047 135.438 28.6523V28.9064H132.137V28.6523C132.322 28.5995 132.449 28.5332 132.52 28.4515C132.592 28.3693 132.629 28.2502 132.629 28.0944V19.1393C132.629 18.978 132.592 18.8561 132.52 18.7739C132.449 18.6921 132.322 18.6232 132.137 18.5731V18.319H138.761C139.568 18.319 140.208 18.3667 140.682 18.4593C141.155 18.5519 141.568 18.716 141.92 18.9487C142.327 19.2181 142.632 19.5836 142.835 20.0439C143.026 20.4882 143.121 20.9641 143.121 21.4724C143.121 23.2023 142.161 24.213 140.243 24.5095L142.298 27.4219C142.658 27.9323 142.922 28.2604 143.092 28.4085C143.261 28.554 143.465 28.6359 143.708 28.6518V28.9059H139.88V28.6518C140.142 28.6095 140.274 28.5172 140.274 28.374C140.274 28.2814 140.153 28.0568 139.91 27.6995L137.753 24.5887H134.946L134.946 24.5892ZM126.988 20.0652V28.0866C126.988 28.2479 127.026 28.3695 127.097 28.4515C127.168 28.5332 127.295 28.5995 127.481 28.6523V28.9064H124.179V28.6523C124.364 28.5995 124.491 28.5332 124.563 28.4515C124.634 28.3693 124.671 28.2477 124.671 28.0866V20.0652H121.401C121.248 20.0652 121.129 20.0997 121.047 20.1712C120.965 20.2399 120.896 20.3694 120.845 20.5574H120.592V17.827H120.845C120.901 18.015 120.97 18.1418 121.049 18.2134C121.131 18.2847 121.247 18.319 121.401 18.319H130.25C130.409 18.319 130.531 18.2847 130.613 18.2134C130.695 18.1418 130.763 18.015 130.814 17.827H131.068V20.5574H130.814C130.763 20.3693 130.695 20.2399 130.613 20.1712C130.53 20.0997 130.409 20.0652 130.25 20.0652H126.988H126.988ZM119.552 19.208L118.29 21.6973L118.073 21.573C118.079 21.5229 118.081 21.4805 118.081 21.4488C118.081 21.2742 117.93 21.0839 117.632 20.8826C116.71 20.2423 115.631 19.922 114.391 19.922C113.843 19.922 113.359 19.9882 112.938 20.1233C112.634 20.2293 112.388 20.3826 112.198 20.5917C112.01 20.7981 111.915 21.0229 111.915 21.2665C111.915 21.6661 112.155 21.9385 112.634 22.0811C112.883 22.1552 113.415 22.2322 114.232 22.3166L115.449 22.4408C116.171 22.5176 116.758 22.6237 117.205 22.7583C117.653 22.8929 118.047 23.0809 118.393 23.3244C118.745 23.5786 119.023 23.9118 119.227 24.3245C119.43 24.7401 119.534 25.1816 119.534 25.6526C119.534 26.3964 119.293 27.0598 118.814 27.6392C118.38 28.1657 117.706 28.5571 116.79 28.8087C116.108 29.0019 115.377 29.097 114.597 29.097C113.198 29.097 111.817 28.7609 110.451 28.0918C110.163 27.9569 109.991 27.8907 109.933 27.8907C109.867 27.8907 109.761 27.9489 109.616 28.0599L109.391 27.9465L110.539 25.3512L110.764 25.4597V25.56C110.764 25.7932 110.875 26.0073 111.094 26.2029C111.43 26.5021 111.952 26.7613 112.653 26.9783C113.357 27.1952 114.023 27.3038 114.653 27.3038C115.341 27.3038 115.928 27.1874 116.412 26.9545C116.682 26.8251 116.896 26.6531 117.055 26.4389C117.216 26.2244 117.296 25.9998 117.296 25.7668C117.296 25.415 117.108 25.1639 116.729 25.0128C116.465 24.9097 115.933 24.8143 115.132 24.7272L113.936 24.6027C113.137 24.5184 112.568 24.4388 112.238 24.3649C111.907 24.2907 111.576 24.1691 111.245 24.0023C110.774 23.7694 110.404 23.4201 110.137 22.9548C109.894 22.5341 109.772 22.0525 109.772 21.5102C109.772 20.6131 110.079 19.8724 110.695 19.2881C111.502 18.5153 112.714 18.1293 114.33 18.1293C115.005 18.1293 115.637 18.1981 116.219 18.3358C116.803 18.4732 117.531 18.7245 118.407 19.0923C118.706 19.2115 118.888 19.2694 118.957 19.2694C119.065 19.2694 119.19 19.2115 119.336 19.0923L119.552 19.2087L119.552 19.208ZM103.848 24.7475L102.15 21.0095L100.42 24.7475H103.848H103.848ZM104.51 26.1921H99.7373L99.0181 27.687C98.9199 27.8959 98.8699 28.0576 98.8699 28.1763C98.8699 28.4066 99.0444 28.5654 99.3906 28.6525V28.9066H95.8906V28.6525C96.0972 28.6102 96.2559 28.5389 96.3643 28.4357C96.4727 28.3327 96.5972 28.1312 96.7344 27.8326L100.626 19.7056C100.75 19.4464 100.811 19.2404 100.811 19.0838C100.811 18.8459 100.663 18.6766 100.361 18.5736V18.3195H104.113V18.5736C103.806 18.6608 103.655 18.8143 103.655 19.0311C103.655 19.1792 103.703 19.3511 103.801 19.5415L107.827 27.6924C107.999 28.0389 108.148 28.2744 108.277 28.4014C108.406 28.5284 108.579 28.6105 108.796 28.6528V28.9069H104.891V28.6528C105.232 28.5948 105.402 28.4359 105.402 28.1714C105.402 28.0601 105.349 27.8993 105.245 27.6874L104.51 26.1925V26.1921ZM87.0178 27.1605H89.9226C90.8484 27.1605 91.5442 27.0331 92.01 26.7795C93.01 26.2372 93.5103 25.1816 93.5103 23.6071C93.5103 22.4727 93.24 21.5995 92.7031 20.9965C92.4016 20.6604 92.0391 20.4197 91.6162 20.2794C91.1899 20.1365 90.6265 20.0652 89.9226 20.0652H87.0181V27.1605H87.0178ZM84.7004 28.0866V19.1395C84.7004 18.9781 84.6633 18.8563 84.5918 18.7741C84.5205 18.6924 84.3936 18.6235 84.2083 18.5734V18.3192H90.1104C91.4038 18.3192 92.3962 18.4673 93.0891 18.7609C94.084 19.1896 94.8169 19.8984 95.2932 20.8853C95.6716 21.6628 95.8594 22.5705 95.8594 23.6071C95.8594 25.4327 95.2983 26.8246 94.1765 27.7822C93.7056 28.1844 93.1555 28.4728 92.5234 28.647C91.8938 28.819 91.0894 28.9064 90.1108 28.9064H84.2085V28.6523C84.3938 28.5995 84.5208 28.5332 84.5923 28.4515C84.6633 28.3693 84.7007 28.2477 84.7007 28.0866H84.7004ZM78.3484 24.7477L76.6499 21.0098L74.9199 24.7477H78.3484ZM79.01 26.1923H74.2375L73.5178 27.6872C73.4199 27.8962 73.3699 28.0577 73.3699 28.1766C73.3699 28.4068 73.5447 28.5656 73.8911 28.6528V28.9069H70.3909V28.6528C70.5974 28.6105 70.7561 28.5391 70.8645 28.4359C70.9731 28.3329 71.0972 28.1315 71.2351 27.8329L75.1265 19.7059C75.2507 19.4466 75.3115 19.2406 75.3115 19.084C75.3115 18.8462 75.1633 18.6768 74.8621 18.5738V18.3196H78.613V18.5738C78.3062 18.661 78.1553 18.8145 78.1553 19.0314C78.1553 19.1794 78.2029 19.3514 78.3008 19.5418L82.3274 27.6926C82.4993 28.0391 82.6475 28.2746 82.7769 28.4017C82.9067 28.5287 83.0789 28.6107 83.2957 28.653V28.9071H79.3909V28.653C79.7319 28.5951 79.9011 28.4362 79.9011 28.1716C79.9011 28.0604 79.8484 27.8995 79.7451 27.6876L79.0098 26.1927L79.01 26.1923ZM62.9756 23.9622L61.3774 25.2503V28.0866C61.3774 28.2479 61.4148 28.3695 61.4888 28.4542C61.563 28.5414 61.6897 28.6047 61.8699 28.6523V28.9064H58.5684V28.6523C58.7534 28.5995 58.8806 28.5333 58.9521 28.4515C59.0234 28.3693 59.0608 28.2477 59.0608 28.0866V19.1315C59.0608 18.9752 59.0234 18.8561 58.9521 18.7741C58.8806 18.6924 58.7537 18.6235 58.5684 18.5734V18.3192H61.8699V18.5734C61.6848 18.621 61.5576 18.6841 61.4863 18.7715C61.4148 18.8564 61.3774 18.9754 61.3774 19.1287V22.8244L65.7004 19.2794C65.9041 19.1128 66.0073 18.9803 66.0073 18.883C66.0073 18.7344 65.8567 18.6288 65.5549 18.5734V18.3192H69.9175V18.5734C69.7375 18.6102 69.6079 18.6499 69.5286 18.6976C69.4519 18.7427 69.2273 18.9197 68.854 19.2241L68.2588 19.7189L64.6582 22.6075L68.7375 27.5119C69.116 27.9701 69.3882 28.2637 69.5552 28.3958C69.7244 28.528 69.9336 28.6152 70.1875 28.6577V28.9062H66.0552V28.652C66.3276 28.5941 66.4653 28.496 66.4653 28.3587C66.4653 28.2845 66.3411 28.0941 66.0923 27.7845L62.9758 23.9619L62.9756 23.9622Z" fill="white"/>
<path fill-rule="evenodd" clip-rule="evenodd" d="M140.902 35.7374V32.3237C140.902 32.2637 140.888 32.2186 140.86 32.1873C140.833 32.156 140.784 32.1298 140.714 32.1106V32.0138H141.972V32.1106C141.902 32.1285 141.854 32.1527 141.826 32.1863C141.799 32.2186 141.785 32.2637 141.785 32.3237V35.7374C141.785 35.799 141.799 35.8453 141.827 35.8777C141.856 35.9113 141.904 35.9354 141.972 35.9532V36.0499H140.714V35.9532C140.784 35.933 140.833 35.9076 140.86 35.8768C140.887 35.8453 140.901 35.799 140.901 35.7374H140.902ZM133.172 34.5975H132.174C132.114 34.5975 132.067 34.6118 132.037 34.6392C132.007 34.6663 131.981 34.7145 131.961 34.7854H131.865V33.8472H131.961C131.981 33.9199 132.006 33.969 132.037 33.9952C132.067 34.0215 132.112 34.0344 132.174 34.0344H134.085V34.1315C134.016 34.1504 133.967 34.177 133.939 34.208C133.912 34.2394 133.898 34.2858 133.898 34.3473V35.1741C133.898 35.2358 133.911 35.2822 133.938 35.3135C133.965 35.3446 134.013 35.3699 134.085 35.3903V35.4628C133.32 35.9026 132.576 36.1221 131.858 36.1221C131.206 36.1221 130.674 35.967 130.263 35.6571C129.745 35.2667 129.486 34.7241 129.486 34.0293C129.486 33.3828 129.716 32.8677 130.177 32.4852C130.615 32.1222 131.196 31.9408 131.92 31.9408C132.149 31.9408 132.367 31.9622 132.571 32.0044C132.776 32.0464 133.007 32.1173 133.266 32.2172C133.401 32.2709 133.496 32.2969 133.553 32.2969C133.594 32.2969 133.643 32.2745 133.698 32.2292L133.783 32.2739L133.308 33.24L133.222 33.1957C133.22 33.131 133.211 33.0846 133.196 33.0566C133.18 33.0271 133.145 32.9929 133.089 32.9515C132.969 32.8608 132.793 32.7844 132.561 32.7205C132.328 32.657 132.108 32.6249 131.901 32.6249C131.479 32.6249 131.129 32.7429 130.852 32.9799C130.539 33.2491 130.382 33.6034 130.382 34.0439C130.382 34.4703 130.535 34.8146 130.841 35.0778C131.121 35.319 131.49 35.439 131.948 35.439C132.172 35.439 132.392 35.4125 132.609 35.3612C132.826 35.3097 133.014 35.24 133.172 35.15V34.5974V34.5975ZM121.848 35.7374V32.3237C121.848 32.2637 121.834 32.2186 121.807 32.1873C121.78 32.156 121.731 32.1298 121.66 32.1106V32.0138H122.919V32.1106C122.848 32.1285 122.8 32.1527 122.773 32.1863C122.745 32.2186 122.731 32.2637 122.731 32.3237V35.7374C122.731 35.799 122.745 35.8453 122.774 35.8777C122.802 35.9113 122.85 35.9354 122.919 35.9532V36.0499H121.66V35.9532C121.731 35.933 121.78 35.9076 121.807 35.8768C121.834 35.8453 121.848 35.799 121.848 35.7374ZM112.51 35.3844H114.988C115.049 35.3844 115.095 35.3704 115.126 35.3433C115.158 35.3156 115.184 35.2672 115.203 35.1969H115.3V36.2374H115.203C115.184 36.1671 115.158 36.1187 115.126 36.0912C115.095 36.0638 115.049 36.0497 114.988 36.0497H111.439V35.9531C111.51 35.9329 111.559 35.9072 111.586 35.8766C111.613 35.8452 111.627 35.7986 111.627 35.7372V32.3263C111.627 32.2646 111.613 32.2184 111.586 32.1869C111.559 32.1558 111.51 32.1296 111.439 32.1105V32.0137H112.698V32.1105C112.627 32.1284 112.579 32.1525 112.552 32.186C112.524 32.2184 112.51 32.2646 112.51 32.3263V35.3842V35.3844ZM103.536 32.6797V35.7374C103.536 35.799 103.551 35.8453 103.578 35.8768C103.605 35.9077 103.653 35.933 103.724 35.9532V36.0499H102.465V35.9532C102.536 35.933 102.585 35.9076 102.612 35.8768C102.639 35.8453 102.653 35.799 102.653 35.7374V32.6797H101.406C101.348 32.6797 101.302 32.6929 101.271 32.7197C101.24 32.7461 101.214 32.7953 101.195 32.8669H101.098V31.826H101.195C101.216 31.8976 101.242 31.946 101.272 31.9731C101.303 32.0004 101.348 32.0134 101.406 32.0134H104.78C104.841 32.0134 104.887 32.0001 104.918 31.9731C104.949 31.9459 104.976 31.8976 104.995 31.826H105.092V32.8669H104.995C104.976 32.7953 104.95 32.7457 104.918 32.7197C104.887 32.6926 104.841 32.6797 104.78 32.6797H103.536H103.536ZM91.1975 33.2867V35.7374C91.1975 35.799 91.2117 35.8453 91.2388 35.8768C91.2659 35.9077 91.3142 35.933 91.385 35.9532V36.0499H90.2048V35.9532C90.2756 35.933 90.3242 35.9076 90.3513 35.8768C90.3787 35.8453 90.3923 35.799 90.3923 35.7374V32.3237C90.3923 32.2637 90.3787 32.2186 90.3513 32.1873C90.3242 32.156 90.2756 32.1298 90.2048 32.1106V32.0138H91.5737V32.1106C91.489 32.1316 91.4475 32.177 91.4475 32.2469C91.4475 32.2944 91.4746 32.3457 91.5291 32.4033L93.7632 34.7161V32.324C93.7632 32.264 93.7493 32.2189 93.7219 32.1874C93.6946 32.1562 93.6462 32.13 93.5754 32.111V32.014H94.7556V32.111C94.6851 32.13 94.6365 32.1562 94.6091 32.1874C94.5818 32.2189 94.5681 32.264 94.5681 32.324V35.7377C94.5681 35.7991 94.5818 35.8457 94.6091 35.8771C94.6365 35.908 94.6851 35.9332 94.7556 35.9536V36.0502H93.4871V35.9536C93.5691 35.9355 93.6106 35.8931 93.6106 35.8268C93.6106 35.787 93.562 35.7189 93.4666 35.6199L91.1973 33.2872L91.1975 33.2867ZM80.738 34.2767V35.3844H83.3271C83.387 35.3844 83.4324 35.3704 83.4634 35.3433C83.4944 35.3156 83.5212 35.2672 83.5403 35.1969H83.6367V36.2374H83.5403C83.5212 36.1671 83.4944 36.1187 83.4634 36.0912C83.4324 36.0638 83.387 36.0497 83.3271 36.0497H79.667V35.9531C79.7378 35.9329 79.7861 35.9072 79.8132 35.8766C79.8406 35.8452 79.8547 35.7986 79.8547 35.7372V32.3263C79.8547 32.2646 79.8406 32.2184 79.8132 32.1869C79.7861 32.1558 79.7378 32.1296 79.667 32.1105V32.0137H83.2546C83.314 32.0137 83.3596 31.9998 83.3909 31.9723C83.4221 31.9442 83.4485 31.8955 83.4675 31.826H83.5642V32.8671H83.4675C83.4485 32.7976 83.4221 32.7487 83.3909 32.7206C83.3596 32.6934 83.3142 32.6794 83.2556 32.6794H80.738V33.6355H82.3718C82.4304 33.6355 82.4758 33.621 82.5071 33.594C82.5383 33.5668 82.5647 33.5187 82.5837 33.4478H82.6804V34.4644H82.5837C82.5647 34.3956 82.5383 34.3473 82.5071 34.3191C82.4758 34.291 82.4304 34.2766 82.3718 34.2766H80.738V34.2767ZM72.1243 34.5975H71.1272C71.0667 34.5975 71.0203 34.6118 70.99 34.6392C70.9592 34.6663 70.9343 34.7145 70.9143 34.7854H70.8176V33.8472H70.9143C70.9343 33.9199 70.9583 33.969 70.99 33.9952C71.0198 34.0215 71.0652 34.0344 71.1272 34.0344H73.0381V34.1315C72.9688 34.1504 72.9202 34.177 72.8918 34.208C72.8645 34.2394 72.8503 34.2858 72.8503 34.3473V35.1741C72.8503 35.2358 72.8638 35.2822 72.8914 35.3135C72.9182 35.3446 72.9666 35.3699 73.0381 35.3903V35.4628C72.2732 35.9026 71.5293 36.1221 70.8115 36.1221C70.1584 36.1221 69.6272 35.967 69.2158 35.6571C68.6985 35.2667 68.4392 34.7241 68.4392 34.0293C68.4392 33.3828 68.6689 32.8677 69.1296 32.4852C69.5676 32.1222 70.1487 31.9408 70.8728 31.9408C71.1028 31.9408 71.3206 31.9622 71.5242 32.0044C71.7283 32.0464 71.9602 32.1173 72.2195 32.2172C72.3533 32.2709 72.449 32.2969 72.5056 32.2969C72.5471 32.2969 72.5955 32.2745 72.6511 32.2292L72.7361 32.2739L72.2607 33.24L72.175 33.1957C72.1731 33.131 72.1641 33.0846 72.1487 33.0566C72.1326 33.0271 72.0977 32.9929 72.042 32.9515C71.9221 32.8608 71.7454 32.7844 71.5134 32.7205C71.2803 32.657 71.0608 32.6249 70.8538 32.6249C70.4324 32.6249 70.0823 32.7429 69.8052 32.9799C69.4915 33.2491 69.3352 33.6034 69.3352 34.0439C69.3352 34.4703 69.4883 34.8146 69.7939 35.0778C70.0745 35.319 70.4431 35.439 70.9011 35.439C71.1255 35.439 71.3455 35.4125 71.5618 35.3612C71.7786 35.3097 71.9666 35.24 72.1248 35.15V34.5974L72.1243 34.5975ZM60.6638 34.4646L60.0164 33.0393L59.3569 34.4646H60.6638ZM60.9158 35.0151H59.0964L58.822 35.5851C58.7844 35.6647 58.7654 35.7263 58.7654 35.7716C58.7654 35.8593 58.832 35.9198 58.9641 35.9532V36.0499H57.6299V35.9532C57.7087 35.937 57.769 35.91 57.8103 35.8707C57.8518 35.8314 57.8987 35.755 57.9517 35.6404L59.4353 32.5422C59.4822 32.4435 59.5056 32.3646 59.5056 32.3053C59.5056 32.2144 59.4495 32.1499 59.3342 32.1106V32.0138H60.7642V32.1106C60.6477 32.1437 60.5901 32.2023 60.5901 32.285C60.5901 32.3414 60.6079 32.4073 60.6458 32.4796L62.1804 35.5873C62.2461 35.7195 62.303 35.809 62.3518 35.8574C62.4016 35.906 62.467 35.9373 62.5496 35.9536V36.0502H61.0613V35.9536C61.1912 35.9314 61.2556 35.8708 61.2556 35.7698C61.2556 35.7273 61.2354 35.6659 61.196 35.5852L60.9153 35.0154L60.9158 35.0151Z" fill="white"/>
<path fill-rule="evenodd" clip-rule="evenodd" d="M16.3545 39.3809V43.0996H20.0734L16.3545 39.3809Z" fill="white"/>
<path d="M16.3545 39.3807V43.0996H20.0734L16.3545 39.3807ZM16.5612 39.8794L19.5743 42.8927H16.5612V39.8794Z" fill="white"/>
<path fill-rule="evenodd" clip-rule="evenodd" d="M24.6807 30.4711L37.3093 43.0997H41.3994L26.7256 28.4258L24.6807 30.4711Z" fill="white"/>
<path d="M26.7258 28.4258L24.6807 30.4709L37.3091 43.0996H41.3997L26.7258 28.4258ZM26.7258 28.7179L40.9009 42.8929H37.3948L24.9729 30.4709L26.7258 28.7179Z" fill="white"/>
<path fill-rule="evenodd" clip-rule="evenodd" d="M19.2715 35.7445L26.6263 43.0996H30.7168L21.3165 33.6993L19.2715 35.7445Z" fill="white"/>
<path d="M21.3168 33.6993L19.2715 35.7445L26.6266 43.0996H30.717L21.3168 33.6993ZM21.3168 33.9912L30.2181 42.8931H26.7121L19.5637 35.7445L21.3168 33.9912Z" fill="white"/>
<path fill-rule="evenodd" clip-rule="evenodd" d="M11.8096 13.9692V40.2071L14.7018 43.0996V11.0768L11.8096 13.9692Z" fill="white"/>
<path d="M14.7021 11.0768L11.8096 13.9692V40.2072L14.7021 43.0996V11.0768ZM14.4954 11.5756V42.601L12.0163 40.1216V14.055L14.4954 11.5759V11.5756Z" fill="white"/>
<path fill-rule="evenodd" clip-rule="evenodd" d="M20.0734 11.0768H16.3545V14.7952L20.0734 11.0768Z" fill="white"/>
<path d="M20.0732 11.0768H16.3545V14.7954L20.0732 11.0768ZM19.5743 11.2835L16.5612 14.2968V11.2835H19.5743Z" fill="white"/>
<path fill-rule="evenodd" clip-rule="evenodd" d="M30.4857 11.0768H26.3956L16.3545 21.1179V25.1254L16.3959 25.1667L30.4857 11.0768Z" fill="white"/>
<path d="M30.4858 11.0768H26.3954L16.3545 21.1176V25.1254L16.3958 25.1667L30.486 11.0768H30.4858ZM29.9869 11.2835L16.5612 24.7092V21.2029L26.4811 11.2832H29.9872L29.9869 11.2835Z" fill="white"/>
<path fill-rule="evenodd" clip-rule="evenodd" d="M37.1389 11.0768L16.3545 31.8607V35.9512L41.2289 11.0768H37.1389Z" fill="white"/>
<path d="M41.2289 11.0768H37.1384L16.3545 31.8607V35.9512L41.2289 11.0768ZM40.73 11.2834L16.5611 35.4523V31.9464L37.2239 11.2834H40.7297H40.73Z" fill="white"/>
<path fill-rule="evenodd" clip-rule="evenodd" d="M19.1273 7.97769H7.49429V19.6107L0.0166016 27.0882L7.49429 34.5659V46.1985H19.1271L26.6048 53.6761L34.0825 46.1985H45.7151V34.5659L53.1925 27.0882L45.7151 19.6107V7.97769H34.082L26.6046 0.5L19.1271 7.97769H19.1273ZM26.6048 2.54521L32.037 7.97769H21.1728L26.605 2.54521H26.6048ZM9.56028 10.0434H43.6493V44.1325H9.56028V10.0434V10.0434ZM45.7153 21.6555L51.1478 27.088L45.7153 32.5204V21.6555V21.6555ZM2.06205 27.088L7.49452 21.6555V32.5204L2.06205 27.088ZM21.1728 46.1985H32.037L26.6048 51.6309L21.1726 46.1985L21.1728 46.1985Z" fill="white"/>
<path d="M26.6048 51.6307L21.1726 46.1982H32.037L26.6046 51.6307H26.6048ZM7.49429 32.5202L2.06205 27.0877L7.49429 21.6555V32.52V32.5202ZM45.7151 32.5202V21.6557L51.1475 27.088L45.7151 32.5204L45.7151 32.5202ZM9.56028 10.0434H43.6493V44.1325H9.56028V10.0434ZM21.1726 7.97745L26.6048 2.54521L32.0373 7.97745H21.1728H21.1726ZM26.6048 0.5L19.1273 7.97745H7.49429V19.6105L0.0166016 27.088L7.49429 34.5656V46.1982H19.1269L26.6046 53.6759L34.0822 46.1982H45.7148V34.5656L53.1925 27.088L45.7148 19.6105V7.97745H34.0822L26.6046 0.500004L26.6048 0.5ZM26.6048 51.9229L26.7508 51.7767L32.1832 46.3442L32.5359 45.9918H32.0373H21.1728H20.674L21.0268 46.3442L26.4591 51.7767L26.6053 51.9229H26.6048ZM7.70096 33.0188V32.5202V21.6557V21.1569L7.34832 21.5097L1.91608 26.942L1.76987 27.0882L1.91608 27.2342L7.34832 32.6666L7.70096 33.0193V33.0188ZM45.5089 33.0188L45.8613 32.6662L51.2938 27.2337L51.4399 27.0877L51.2938 26.9415L45.8613 21.5093L45.5089 21.1564V21.6552V32.5197V33.0183V33.0188ZM9.35408 44.3389H9.56052H43.6495H43.8562V44.1322V10.0434V9.83677H43.6495H9.56052H9.35408V10.0434V44.1322V44.3389ZM20.6739 8.18388H21.1728H32.0373H32.5359L32.1832 7.83124L26.7508 2.399L26.6048 2.2528L26.4586 2.399L21.0263 7.83124L20.6735 8.18388H20.6739ZM26.605 0.79217L33.9365 8.12342L33.9967 8.18388H34.0827H45.5091V19.6103V19.696L45.5693 19.7565L52.9008 27.0877L45.5693 34.4192L45.5091 34.4797V34.5652V45.9916H34.0827H33.9972L33.9367 46.0518L26.6053 53.3833L19.2738 46.0518L19.2133 45.9916H19.1278H7.70166V34.5652V34.4797L7.6412 34.4192L0.309715 27.0877L7.6412 19.7565L7.70166 19.696V19.6103V8.18388H19.128H19.2138L19.2743 8.12341L26.6055 0.792166L26.605 0.79217Z" fill="white"/>
</svg>
